NotoSansDisplay-BoldItalic.ufo
<glyph name="uni026A" format="2">
  <advance width="348"/>
  <unicode hex="026A"/>
  <anchor x="118" y="0" name="bottom"/>
  <anchor x="236" y="553" name="top"/>
  <outline>
    <contour>
      <point x="-33" y="0" type="line"/>
      <point x="250" y="0" type="line"/>
      <point x="269" y="92" type="line"/>
      <point x="211" y="137" type="line"/>
      <point x="273" y="416" type="line"/>
      <point x="349" y="461" type="line"/>
      <point x="368" y="553" type="line"/>
      <point x="84" y="553" type="line"/>
      <point x="66" y="461" type="line"/>
      <point x="121" y="416" type="line"/>
      <point x="60" y="137" type="line"/>
      <point x="-14" y="92" type="line"/>
    </contour>
  </outline>
</glyph>
<glyph name="uni0274" format="2">
  <advance width="656"/>
  <unicode hex="0274"/>
  <anchor x="273" y="0" name="bottom"/>
  <anchor x="391" y="553" name="top"/>
  <anchor x="674" y="553" name="topright"/>
  <outline>
    <contour>
      <point x="15" y="0" type="line"/>
      <point x="146" y="0" type="line"/>
      <point x="195" y="225" type="line" smooth="yes"/>
      <point x="206" y="275"/>
      <point x="214" y="355"/>
      <point x="219" y="392" type="curve"/>
      <point x="344" y="0" type="line"/>
      <point x="515" y="0" type="line"/>
      <point x="632" y="553" type="line"/>
      <point x="502" y="553" type="line"/>
      <point x="452" y="329" type="line" smooth="yes"/>
      <point x="444" y="292"/>
      <point x="431" y="210"/>
      <point x="426" y="182" type="curve"/>
      <point x="316" y="553" type="line"/>
      <point x="132" y="553" type="line"/>
    </contour>
  </outline>
</glyph>
<glyph name="uni0299" format="2">
  <advance width="534"/>
  <unicode hex="0299"/>
  <anchor x="213" y="0" name="bottom"/>
  <anchor x="331" y="553" name="top"/>
  <outline>
    <contour>
      <point x="12" y="0" type="line"/>
      <point x="229" y="0" type="line" smooth="yes"/>
      <point x="394" y="0"/>
      <point x="464" y="69"/>
      <point x="464" y="186" type="curve" smooth="yes"/>
      <point x="464" y="230"/>
      <point x="442" y="272"/>
      <point x="398" y="286" type="curve"/>
      <point x="398" y="290" type="line"/>
      <point x="465" y="310"/>
      <point x="503" y="358"/>
      <point x="503" y="432" type="curve" smooth="yes"/>
      <point x="503" y="508"/>
      <point x="452" y="553"/>
      <point x="312" y="553" type="curve" smooth="yes"/>
      <point x="130" y="553" type="line"/>
    </contour>
    <contour>
      <point x="198" y="131" type="line"/>
      <point x="219" y="224" type="line"/>
      <point x="258" y="224" type="line" smooth="yes"/>
      <point x="284" y="224"/>
      <point x="305" y="215"/>
      <point x="305" y="186" type="curve" smooth="yes"/>
      <point x="305" y="148"/>
      <point x="274" y="131"/>
      <point x="238" y="131" type="curve" smooth="yes"/>
    </contour>
    <contour>
      <point x="246" y="348" type="line"/>
      <point x="262" y="425" type="line"/>
      <point x="297" y="425" type="line" smooth="yes"/>
      <point x="322" y="425"/>
      <point x="339" y="415"/>
      <point x="339" y="392" type="curve" smooth="yes"/>
      <point x="339" y="359"/>
      <point x="317" y="348"/>
      <point x="268" y="348" type="curve" smooth="yes"/>
    </contour>
  </outline>
</glyph>
<glyph name="uni0488" format="2">
  <advance width="936"/>
  <unicode hex="0488"/>
  <outline>
    <contour>
      <point x="621" y="456" type="curve"/>
      <point x="680" y="456" type="line"/>
      <point x="682" y="484"/>
      <point x="719" y="488"/>
      <point x="737" y="488" type="curve" smooth="yes"/>
      <point x="764" y="488"/>
      <point x="792" y="486"/>
      <point x="793" y="456" type="curve"/>
      <point x="850" y="456" type="line"/>
      <point x="848" y="517"/>
      <point x="804" y="557"/>
      <point x="737" y="557" type="curve" smooth="yes"/>
      <point x="676" y="557"/>
      <point x="624" y="515"/>
    </contour>
    <contour>
      <point x="72" y="-20" type="curve"/>
      <point x="132" y="-20" type="line"/>
      <point x="134" y="8"/>
      <point x="171" y="12"/>
      <point x="189" y="12" type="curve" smooth="yes"/>
      <point x="216" y="12"/>
      <point x="244" y="10"/>
      <point x="245" y="-20" type="curve"/>
      <point x="302" y="-20" type="line"/>
      <point x="300" y="41"/>
      <point x="256" y="81"/>
      <point x="189" y="81" type="curve" smooth="yes"/>
      <point x="128" y="81"/>
      <point x="76" y="39"/>
    </contour>
    <contour>
      <point x="338" y="-156" type="curve"/>
      <point x="398" y="-156" type="line"/>
      <point x="400" y="-128"/>
      <point x="436" y="-124"/>
      <point x="454" y="-124" type="curve" smooth="yes"/>
      <point x="482" y="-124"/>
      <point x="510" y="-126"/>
      <point x="511" y="-156" type="curve"/>
      <point x="568" y="-156" type="line"/>
      <point x="566" y="-95"/>
      <point x="522" y="-55"/>
      <point x="455" y="-55" type="curve" smooth="yes"/>
      <point x="394" y="-55"/>
      <point x="342" y="-97"/>
    </contour>
    <contour>
      <point x="10" y="221" type="curve"/>
      <point x="70" y="221" type="line"/>
      <point x="72" y="249"/>
      <point x="108" y="253"/>
      <point x="126" y="253" type="curve" smooth="yes"/>
      <point x="154" y="253"/>
      <point x="182" y="251"/>
      <point x="183" y="221" type="curve"/>
      <point x="240" y="221" type="line"/>
      <point x="238" y="282"/>
      <point x="193" y="322"/>
      <point x="127" y="322" type="curve" smooth="yes"/>
      <point x="66" y="322"/>
      <point x="13" y="280"/>
    </contour>
    <contour>
      <point x="77" y="456" type="curve"/>
      <point x="137" y="456" type="line"/>
      <point x="139" y="484"/>
      <point x="176" y="488"/>
      <point x="194" y="488" type="curve" smooth="yes"/>
      <point x="221" y="488"/>
      <point x="249" y="486"/>
      <point x="250" y="456" type="curve"/>
      <point x="307" y="456" type="line"/>
      <point x="305" y="517"/>
      <point x="261" y="557"/>
      <point x="194" y="557" type="curve" smooth="yes"/>
      <point x="133" y="557"/>
      <point x="81" y="515"/>
    </contour>
    <contour>
      <point x="616" y="-20" type="curve"/>
      <point x="675" y="-20" type="line"/>
      <point x="677" y="8"/>
      <point x="714" y="12"/>
      <point x="732" y="12" type="curve" smooth="yes"/>
      <point x="759" y="12"/>
      <point x="787" y="10"/>
      <point x="788" y="-20" type="curve"/>
      <point x="845" y="-20" type="line"/>
      <point x="843" y="41"/>
      <point x="799" y="81"/>
      <point x="732" y="81" type="curve" smooth="yes"/>
      <point x="671" y="81"/>
      <point x="619" y="39"/>
    </contour>
    <contour>
      <point x="682" y="221" type="curve"/>
      <point x="742" y="221" type="line"/>
      <point x="743" y="249"/>
      <point x="780" y="253"/>
      <point x="798" y="253" type="curve" smooth="yes"/>
      <point x="826" y="253"/>
      <point x="853" y="251"/>
      <point x="854" y="221" type="curve"/>
      <point x="912" y="221" type="line"/>
      <point x="910" y="282"/>
      <point x="865" y="322"/>
      <point x="799" y="322" type="curve" smooth="yes"/>
      <point x="737" y="322"/>
      <point x="685" y="280"/>
    </contour>
    <contour>
      <point x="346" y="595" type="curve"/>
      <point x="406" y="595" type="line"/>
      <point x="408" y="623"/>
      <point x="444" y="627"/>
      <point x="462" y="627" type="curve" smooth="yes"/>
      <point x="490" y="627"/>
      <point x="518" y="625"/>
      <point x="519" y="595" type="curve"/>
      <point x="576" y="595" type="line"/>
      <point x="574" y="656"/>
      <point x="530" y="696"/>
      <point x="463" y="696" type="curve" smooth="yes"/>
      <point x="402" y="696"/>
      <point x="350" y="654"/>
    </contour>
  </outline>
</glyph>
<glyph name="uni1ABA" format="2">
  <unicode hex="1ABA"/>
  <anchor x="0" y="90" name="_bottom"/>
  <anchor x="-42" y="-258" name="bottom"/>
  <outline>
    <contour>
      <point x="-133" y="-175" type="line"/>
      <point x="-44" y="-175" type="line"/>
      <point x="105" y="40" type="line"/>
      <point x="12" y="40" type="line"/>
    </contour>
    <contour>
      <point x="-97" y="-258" type="curve" smooth="yes"/>
      <point x="-30" y="-258"/>
      <point x="12" y="-236"/>
      <point x="12" y="-160" type="curve" smooth="yes"/>
      <point x="12" y="-115"/>
      <point x="-19" y="-94"/>
      <point x="-64" y="-94" type="curve" smooth="yes"/>
      <point x="-118" y="-94"/>
      <point x="-170" y="-125"/>
      <point x="-170" y="-195" type="curve" smooth="yes"/>
      <point x="-170" y="-238"/>
      <point x="-138" y="-258"/>
    </contour>
  </outline>
</glyph>
<glyph name="uni1D0A" format="2">
  <advance width="324"/>
  <unicode hex="1D0A"/>
  <anchor x="66" y="-177" name="bottom"/>
  <anchor x="223" y="553" name="top"/>
  <outline>
    <contour>
      <point x="-49" y="-177" type="curve" smooth="yes"/>
      <point x="88" y="-177"/>
      <point x="154" y="-119"/>
      <point x="186" y="27" type="curve" smooth="yes"/>
      <point x="299" y="553" type="line"/>
      <point x="141" y="553" type="line"/>
      <point x="34" y="52" type="line" smooth="yes"/>
      <point x="20" y="-14"/>
      <point x="-9" y="-45"/>
      <point x="-64" y="-45" type="curve" smooth="yes"/>
      <point x="-95" y="-45"/>
      <point x="-118" y="-40"/>
      <point x="-136" y="-38" type="curve"/>
      <point x="-133" y="-166" type="line"/>
      <point x="-109" y="-171"/>
      <point x="-90" y="-177"/>
    </contour>
  </outline>
</glyph>
<glyph name="uni1D0F" format="2">
  <advance width="612"/>
  <unicode hex="1D0F"/>
  <anchor x="250" y="0" name="bottom"/>
  <anchor x="369" y="553" name="top"/>
  <outline>
    <contour>
      <point x="274" y="-6" type="curve" smooth="yes"/>
      <point x="491" y="-6"/>
      <point x="573" y="193"/>
      <point x="573" y="330" type="curve" smooth="yes"/>
      <point x="573" y="478"/>
      <point x="491" y="563"/>
      <point x="337" y="563" type="curve" smooth="yes"/>
      <point x="135" y="563"/>
      <point x="34" y="401"/>
      <point x="34" y="220" type="curve" smooth="yes"/>
      <point x="34" y="80"/>
      <point x="114" y="-6"/>
    </contour>
    <contour>
      <point x="280" y="125" type="curve" smooth="yes"/>
      <point x="224" y="125"/>
      <point x="193" y="163"/>
      <point x="193" y="228" type="curve" smooth="yes"/>
      <point x="193" y="342"/>
      <point x="254" y="433"/>
      <point x="334" y="433" type="curve" smooth="yes"/>
      <point x="387" y="433"/>
      <point x="413" y="392"/>
      <point x="413" y="330" type="curve" smooth="yes"/>
      <point x="413" y="189"/>
      <point x="337" y="125"/>
    </contour>
  </outline>
</glyph>
<glyph name="uni1D20" format="2">
  <advance width="508"/>
  <unicode hex="1D20"/>
  <anchor x="198" y="0" name="bottom"/>
  <anchor x="316" y="553" name="top"/>
  <outline>
    <contour>
      <point x="87" y="0" type="line"/>
      <point x="263" y="0" type="line"/>
      <point x="546" y="553" type="line"/>
      <point x="388" y="553" type="line"/>
      <point x="233" y="235" type="line" smooth="yes"/>
      <point x="221" y="211"/>
      <point x="209" y="175"/>
      <point x="203" y="144" type="curve"/>
      <point x="198" y="144" type="line"/>
      <point x="202" y="167"/>
      <point x="205" y="213"/>
      <point x="204" y="235" type="curve" smooth="yes"/>
      <point x="193" y="553" type="line"/>
      <point x="40" y="553" type="line"/>
    </contour>
  </outline>
</glyph>
<glyph name="uni1D21" format="2">
  <advance width="764"/>
  <unicode hex="1D21"/>
  <anchor x="327" y="0" name="bottom"/>
  <anchor x="445" y="553" name="top"/>
  <outline>
    <contour>
      <point x="59" y="0" type="line"/>
      <point x="239" y="0" type="line"/>
      <point x="333" y="198" type="line" smooth="yes"/>
      <point x="343" y="219"/>
      <point x="359" y="265"/>
      <point x="376" y="315" type="curve"/>
      <point x="378" y="315" type="line"/>
      <point x="376" y="269"/>
      <point x="378" y="255"/>
      <point x="380" y="159" type="curve" smooth="yes"/>
      <point x="383" y="0" type="line"/>
      <point x="568" y="0" type="line"/>
      <point x="818" y="553" type="line"/>
      <point x="661" y="553" type="line"/>
      <point x="546" y="282" type="line" smooth="yes"/>
      <point x="535" y="257"/>
      <point x="512" y="196"/>
      <point x="496" y="151" type="curve"/>
      <point x="492" y="151" type="line"/>
      <point x="497" y="196"/>
      <point x="498" y="235"/>
      <point x="498" y="255" type="curve" smooth="yes"/>
      <point x="493" y="553" type="line"/>
      <point x="360" y="553" type="line"/>
      <point x="224" y="257" type="line" smooth="yes"/>
      <point x="215" y="237"/>
      <point x="198" y="191"/>
      <point x="184" y="151" type="curve"/>
      <point x="180" y="151" type="line"/>
      <point x="184" y="190"/>
      <point x="184" y="247"/>
      <point x="184" y="282" type="curve" smooth="yes"/>
      <point x="185" y="553" type="line"/>
      <point x="39" y="553" type="line"/>
    </contour>
  </outline>
</glyph>
<glyph name="uni1D22" format="2">
  <advance width="442"/>
  <unicode hex="1D22"/>
  <anchor x="165" y="0" name="bottom"/>
  <anchor x="284" y="553" name="top"/>
  <outline>
    <contour>
      <point x="-45" y="0" type="line"/>
      <point x="367" y="0" type="line"/>
      <point x="394" y="128" type="line"/>
      <point x="185" y="128" type="line"/>
      <point x="451" y="457" type="line"/>
      <point x="472" y="553" type="line"/>
      <point x="77" y="553" type="line"/>
      <point x="51" y="425" type="line"/>
      <point x="235" y="425" type="line"/>
      <point x="-27" y="96" type="line"/>
    </contour>
  </outline>
</glyph>
<glyph name="uni1FEF" format="2">
  <advance width="576"/>
  <unicode hex="1FEF"/>
  <anchor x="344" y="553" name="_top"/>
  <anchor x="342" y="766" name="top"/>
  <outline>
    <contour>
      <point x="318" y="606" type="curve"/>
      <point x="411" y="606" type="line"/>
      <point x="414" y="619" type="line"/>
      <point x="409" y="662"/>
      <point x="406" y="718"/>
      <point x="407" y="766" type="curve"/>
      <point x="266" y="766" type="line"/>
      <point x="264" y="756" type="line"/>
      <point x="272" y="712"/>
      <point x="295" y="656"/>
    </contour>
  </outline>
</glyph>
<glyph name="parenrightsuperior" format="2">
  <advance width="278"/>
  <unicode hex="207E"/>
  <outline>
    <contour>
      <point x="9" y="214" type="curve"/>
      <point x="120" y="214" type="line"/>
      <point x="227" y="320"/>
      <point x="283" y="435"/>
      <point x="283" y="577" type="curve" smooth="yes"/>
      <point x="283" y="646"/>
      <point x="266" y="713"/>
      <point x="230" y="772" type="curve"/>
      <point x="129" y="772" type="line"/>
      <point x="155" y="711"/>
      <point x="171" y="643"/>
      <point x="171" y="583" type="curve" smooth="yes"/>
      <point x="171" y="429"/>
      <point x="103" y="311"/>
    </contour>
  </outline>
</glyph>
<glyph name="uniA651" format="2">
  <advance width="991"/>
  <unicode hex="A651"/>
  <anchor x="477" y="0" name="bottom"/>
  <anchor x="581" y="553" name="top"/>
  <outline>
    <contour>
      <point x="192" y="415" type="line"/>
      <point x="411" y="553" type="line"/>
      <point x="68" y="553" type="line"/>
      <point x="38" y="415" type="line"/>
    </contour>
    <component base="afii10093" xOffset="101"/>
  </outline>
</glyph>
<glyph name="uniA657" format="2">
  <advance width="886"/>
  <unicode hex="A657"/>
  <anchor x="432" y="0" name="bottom"/>
  <anchor x="500" y="553" name="top"/>
  <outline>
    <contour>
      <point x="268" y="0" type="line"/>
      <point x="464" y="0" type="line"/>
      <point x="546" y="191" type="line"/>
      <point x="660" y="191" type="line"/>
      <point x="662" y="0" type="line"/>
      <point x="855" y="0" type="line"/>
      <point x="795" y="552" type="line"/>
      <point x="559" y="552" type="line"/>
    </contour>
    <contour>
      <point x="9" y="0" type="line"/>
      <point x="198" y="0" type="line"/>
      <point x="244" y="215" type="line"/>
      <point x="459" y="215" type="line"/>
      <point x="491" y="353" type="line"/>
      <point x="276" y="353" type="line"/>
      <point x="316" y="553" type="line"/>
      <point x="127" y="553" type="line"/>
    </contour>
    <contour>
      <point x="597" y="306" type="line"/>
      <point x="619" y="352" type="line" smooth="yes"/>
      <point x="634" y="382"/>
      <point x="645" y="421"/>
      <point x="659" y="451" type="curve"/>
      <point x="661" y="451" type="line"/>
      <point x="660" y="421"/>
      <point x="658" y="380"/>
      <point x="659" y="345" type="curve" smooth="yes"/>
      <point x="660" y="306" type="line"/>
    </contour>
  </outline>
</glyph>
<glyph name="uniA665" format="2">
  <advance width="802"/>
  <unicode hex="A665"/>
  <anchor x="266" y="0" name="bottom"/>
  <anchor x="385" y="553" name="top"/>
  <outline>
    <contour>
      <point x="335" y="0" type="line"/>
      <point x="524" y="0" type="line"/>
      <point x="612" y="413" type="line"/>
      <point x="801" y="413" type="line"/>
      <point x="830" y="552" type="line"/>
      <point x="452" y="552" type="line"/>
    </contour>
    <component base="afii10077"/>
  </outline>
</glyph>
<glyph name="uniA731" format="2">
  <advance width="465"/>
  <unicode hex="A731"/>
  <outline>
    <contour>
      <point x="184" y="-8" type="curve" smooth="yes"/>
      <point x="333" y="-8"/>
      <point x="390" y="62"/>
      <point x="390" y="175" type="curve" smooth="yes"/>
      <point x="390" y="236"/>
      <point x="364" y="280"/>
      <point x="305" y="323" type="curve" smooth="yes"/>
      <point x="266" y="352"/>
      <point x="241" y="367"/>
      <point x="241" y="395" type="curve" smooth="yes"/>
      <point x="241" y="418"/>
      <point x="249" y="433"/>
      <point x="286" y="433" type="curve" smooth="yes"/>
      <point x="317" y="433"/>
      <point x="349" y="429"/>
      <point x="401" y="407" type="curve"/>
      <point x="455" y="522" type="line"/>
      <point x="403" y="552"/>
      <point x="346" y="564"/>
      <point x="285" y="564" type="curve" smooth="yes"/>
      <point x="150" y="564"/>
      <point x="77" y="484"/>
      <point x="77" y="389" type="curve" smooth="yes"/>
      <point x="77" y="307"/>
      <point x="133" y="260"/>
      <point x="176" y="227" type="curve" smooth="yes"/>
      <point x="214" y="198"/>
      <point x="228" y="183"/>
      <point x="228" y="160" type="curve" smooth="yes"/>
      <point x="228" y="132"/>
      <point x="216" y="120"/>
      <point x="185" y="120" type="curve" smooth="yes"/>
      <point x="129" y="120"/>
      <point x="75" y="136"/>
      <point x="15" y="169" type="curve"/>
      <point x="11" y="30" type="line"/>
      <point x="47" y="8"/>
      <point x="128" y="-8"/>
    </contour>
  </outline>
</glyph>
<glyph name="uniA748" format="2">
  <advance width="503"/>
  <unicode hex="A748"/>
  <anchor x="203" y="0" name="bottom"/>
  <anchor x="179" y="357" name="center"/>
  <anchor x="256" y="714" name="top"/>
  <anchor x="456" y="714" name="topright"/>
  <outline>
    <contour>
      <point x="63" y="490" type="line"/>
      <point x="391" y="490" type="line"/>
      <point x="425" y="647" type="line"/>
      <point x="97" y="647" type="line"/>
    </contour>
    <component base="L"/>
  </outline>
</glyph>
<glyph name="uniA74A" format="2">
  <advance width="702"/>
  <unicode hex="A74A"/>
  <anchor x="310" y="0" name="bottom"/>
  <anchor x="372" y="357" name="center"/>
  <anchor x="439" y="714" name="top"/>
  <anchor x="778" y="714" name="topright"/>
  <outline>
    <contour>
      <point x="16" y="302" type="line"/>
      <point x="701" y="302" type="line" smooth="yes"/>
      <point x="728" y="427" type="line" smooth="yes"/>
      <point x="43" y="427" type="line"/>
    </contour>
    <component base="O"/>
  </outline>
</glyph>
<glyph name="uniA756" format="2">
  <advance width="702"/>
  <unicode hex="A756"/>
  <anchor x="248" y="-90" name="bottom"/>
  <anchor x="408" y="714" name="top"/>
  <anchor x="747" y="714" name="topright"/>
  <outline>
    <contour>
      <point x="273" y="-179" type="line"/>
      <point x="613" y="-44" type="line"/>
      <point x="571" y="53" type="line"/>
      <point x="234" y="-82" type="line"/>
    </contour>
    <component base="Q" xOffset="-31"/>
  </outline>
</glyph>
<glyph name="uniA75C" format="2">
  <advance width="626"/>
  <unicode hex="A75C"/>
  <outline>
    <contour>
      <point x="-17" y="136" type="line"/>
      <point x="608" y="136" type="line"/>
      <point x="641" y="293" type="line"/>
      <point x="255" y="293" type="line"/>
      <point x="257" y="299" type="line"/>
      <point x="289" y="333" type="line" smooth="yes"/>
      <point x="386" y="437"/>
      <point x="440" y="482"/>
      <point x="440" y="581" type="curve" smooth="yes"/>
      <point x="440" y="663"/>
      <point x="376" y="726"/>
      <point x="270" y="726" type="curve" smooth="yes"/>
      <point x="199" y="726"/>
      <point x="116" y="693"/>
      <point x="74" y="648" type="curve"/>
      <point x="164" y="522" type="line"/>
      <point x="183" y="542"/>
      <point x="201" y="562"/>
      <point x="226" y="562" type="curve" smooth="yes"/>
      <point x="242" y="562"/>
      <point x="252" y="550"/>
      <point x="252" y="530" type="curve" smooth="yes"/>
      <point x="252" y="493"/>
      <point x="225" y="467"/>
      <point x="133" y="379" type="curve" smooth="yes"/>
      <point x="11" y="261" type="line"/>
    </contour>
    <contour>
      <point x="323" y="0" type="line"/>
      <point x="505" y="0" type="line"/>
      <point x="598" y="424" type="line"/>
      <point x="416" y="424" type="line"/>
    </contour>
  </outline>
</glyph>
<glyph name="uniA764" format="2">
  <advance width="590"/>
  <unicode hex="A764"/>
  <outline>
    <contour>
      <point x="12" y="0" type="line"/>
      <point x="203" y="0" type="line"/>
      <point x="214" y="56" type="line"/>
      <point x="286" y="56" type="line" smooth="yes"/>
      <point x="404" y="56"/>
      <point x="538" y="124"/>
      <point x="538" y="283" type="curve" smooth="yes"/>
      <point x="538" y="395"/>
      <point x="481" y="471"/>
      <point x="325" y="471" type="curve" smooth="yes"/>
      <point x="299" y="471" type="line"/>
      <point x="354" y="714" type="line"/>
      <point x="163" y="714" type="line"/>
    </contour>
    <contour>
      <point x="246" y="192" type="line"/>
      <point x="271" y="336" type="line"/>
      <point x="305" y="336" type="line" smooth="yes"/>
      <point x="334" y="336"/>
      <point x="350" y="316"/>
      <point x="350" y="277" type="curve" smooth="yes"/>
      <point x="350" y="228"/>
      <point x="318" y="192"/>
      <point x="276" y="192" type="curve" smooth="yes"/>
    </contour>
    <contour>
      <point x="58" y="536" type="line"/>
      <point x="408" y="536" type="line"/>
      <point x="434" y="655" type="line"/>
      <point x="85" y="655" type="line"/>
    </contour>
  </outline>
</glyph>
<glyph name="uniA765" format="2">
  <advance width="579"/>
  <unicode hex="A765"/>
  <anchor x="183" y="-240" name="bottom"/>
  <anchor x="396" y="760" name="top"/>
  <outline>
    <contour>
      <point x="77" y="594" type="line"/>
      <point x="408" y="594" type="line"/>
      <point x="435" y="712" type="line"/>
      <point x="104" y="712" type="line"/>
    </contour>
    <component base="thorn"/>
  </outline>
</glyph>
<glyph name="uniA772" format="2">
  <advance width="515"/>
  <unicode hex="A772"/>
  <anchor x="99" y="0" name="bottom"/>
  <anchor x="158" y="277" name="center"/>
  <anchor x="261" y="760" name="top"/>
  <anchor x="398" y="760" name="topright"/>
  <outline>
    <contour>
      <point x="132" y="-157" type="line"/>
      <point x="242" y="-157" type="line"/>
      <point x="459" y="294" type="line"/>
      <point x="351" y="294" type="line"/>
    </contour>
    <contour>
      <point x="155" y="0" type="line"/>
      <point x="454" y="0" type="line"/>
      <point x="486" y="139" type="line"/>
      <point x="187" y="139" type="line"/>
    </contour>
    <component base="l"/>
  </outline>
</glyph>
<glyph name="uniA790" format="2">
  <advance width="759"/>
  <unicode hex="A790"/>
  <anchor x="318" y="0" name="bottom"/>
  <anchor x="470" y="714" name="top"/>
  <anchor x="835" y="714" name="topright"/>
  <outline>
    <contour>
      <point x="511" y="-212" type="line"/>
      <point x="701" y="-212" type="line"/>
      <point x="779" y="146" type="line"/>
      <point x="651" y="146" type="line"/>
      <point x="557" y="0" type="line"/>
    </contour>
    <component base="N"/>
  </outline>
</glyph>
<glyph name="uniA799" format="2">
  <advance width="398"/>
  <unicode hex="A799"/>
  <anchor x="1" y="-240" name="bottom"/>
  <anchor x="356" y="765" name="top"/>
  <anchor x="524" y="765" name="topright"/>
  <outline>
    <contour>
      <point x="17" y="224" type="line"/>
      <point x="377" y="224" type="line"/>
      <point x="403" y="342" type="line"/>
      <point x="42" y="342" type="line"/>
    </contour>
    <component base="f"/>
  </outline>
</glyph>
<glyph name="uniA7AE" format="2">
  <advance width="603"/>
  <unicode hex="A7AE"/>
  <anchor x="244" y="0" name="bottom"/>
  <anchor x="396" y="714" name="top"/>
  <outline>
    <contour>
      <point x="669" y="714" type="line"/>
      <point x="120" y="714" type="line"/>
      <point x="97" y="604" type="line"/>
      <point x="261" y="567" type="line"/>
      <point x="171" y="147" type="line"/>
      <point x="-9" y="110" type="line"/>
      <point x="-32" y="0" type="line"/>
      <point x="517" y="0" type="line"/>
      <point x="540" y="110" type="line"/>
      <point x="375" y="147" type="line"/>
      <point x="465" y="567" type="line"/>
      <point x="646" y="604" type="line"/>
    </contour>
  </outline>
</glyph>
<glyph name="uniAB60" format="2">
  <advance width="838"/>
  <unicode hex="AB60"/>
  <outline>
    <contour>
      <point x="532" y="-10" type="curve" smooth="yes"/>
      <point x="708" y="-10"/>
      <point x="796" y="63"/>
      <point x="796" y="199" type="curve" smooth="yes"/>
      <point x="796" y="280"/>
      <point x="741" y="352"/>
      <point x="618" y="352" type="curve" smooth="yes"/>
      <point x="596" y="352"/>
      <point x="572" y="349"/>
      <point x="551" y="342" type="curve"/>
      <point x="598" y="553" type="line"/>
      <point x="408" y="553" type="line"/>
      <point x="341" y="244" type="line" smooth="yes"/>
      <point x="333" y="208"/>
      <point x="328" y="174"/>
      <point x="328" y="144" type="curve" smooth="yes"/>
      <point x="328" y="65"/>
      <point x="376" y="-10"/>
    </contour>
    <contour>
      <point x="9" y="0" type="line"/>
      <point x="198" y="0" type="line"/>
      <point x="317" y="553" type="line"/>
      <point x="126" y="553" type="line"/>
    </contour>
    <contour>
      <point x="558" y="118" type="curve" smooth="yes"/>
      <point x="533" y="118"/>
      <point x="511" y="128"/>
      <point x="511" y="154" type="curve" smooth="yes"/>
      <point x="511" y="167"/>
      <point x="517" y="191"/>
      <point x="523" y="216" type="curve"/>
      <point x="536" y="222"/>
      <point x="554" y="224"/>
      <point x="567" y="224" type="curve" smooth="yes"/>
      <point x="593" y="224"/>
      <point x="604" y="199"/>
      <point x="604" y="173" type="curve" smooth="yes"/>
      <point x="604" y="137"/>
      <point x="584" y="118"/>
    </contour>
  </outline>
</glyph>
